<svg width="40" height="46" viewBox="0 0 40 46" fill="none" xmlns="http://www.w3.org/2000/svg">
<g clip-path="url(#clip0)">
<path d="M20.009 12.5896C14.3305 12.5896 9.7501 17.1699 9.7501 22.8485C9.7501 28.5271 14.3305 33.1074 20.009 33.1074C25.6876 33.1074 30.268 28.5271 30.268 22.8485C30.268 17.1699 25.6876 12.5896 20.009 12.5896ZM20.009 29.5181C16.3394 29.5181 13.3394 26.5271 13.3394 22.8485C13.3394 19.1699 16.3305 16.1789 20.009 16.1789C23.6876 16.1789 26.6787 19.1699 26.6787 22.8485C26.6787 26.5271 23.6787 29.5181 20.009 29.5181V29.5181ZM33.0805 12.1699C33.0805 13.5003 32.009 14.5628 30.6876 14.5628C29.3573 14.5628 28.2947 13.4914 28.2947 12.1699C28.2947 10.8485 29.3662 9.77706 30.6876 9.77706C32.009 9.77706 33.0805 10.8485 33.0805 12.1699ZM39.8751 14.5985C39.7233 11.3931 38.9912 8.55385 36.643 6.21456C34.3037 3.87528 31.4644 3.14314 28.259 2.98242C24.9555 2.79492 15.0537 2.79492 11.7501 2.98242C8.55368 3.13421 5.71439 3.86635 3.36618 6.20564C1.01796 8.54492 0.294747 11.3842 0.134033 14.5896C-0.0534668 17.8931 -0.0534668 27.7949 0.134033 31.0985C0.285819 34.3038 1.01796 37.1431 3.36618 39.4824C5.71439 41.8217 8.54475 42.5538 11.7501 42.7146C15.0537 42.9021 24.9555 42.9021 28.259 42.7146C31.4644 42.5628 34.3037 41.8306 36.643 39.4824C38.9822 37.1431 39.7144 34.3038 39.8751 31.0985C40.0626 27.7949 40.0626 17.9021 39.8751 14.5985V14.5985ZM35.6072 34.6431C34.9108 36.3931 33.5626 37.7414 31.8037 38.4467C29.1698 39.4914 22.9197 39.2503 20.009 39.2503C17.0983 39.2503 10.8394 39.4824 8.21439 38.4467C6.46439 37.7503 5.11618 36.4021 4.41082 34.6431C3.36618 32.0092 3.60725 25.7592 3.60725 22.8485C3.60725 19.9378 3.3751 13.6789 4.41082 11.0539C5.10725 9.30385 6.45546 7.95564 8.21439 7.25028C10.8483 6.20564 17.0983 6.44671 20.009 6.44671C22.9197 6.44671 29.1787 6.21456 31.8037 7.25028C33.5537 7.94671 34.9019 9.29492 35.6072 11.0539C36.6519 13.6878 36.4108 19.9378 36.4108 22.8485C36.4108 25.7592 36.6519 32.0181 35.6072 34.6431Z" fill="#5899FE"/>
</g>
<defs>
<clipPath id="clip0">
<rect width="40" height="45.7143" fill="white"/>
</clipPath>
</defs>
</svg>
