<svg width="40" height="41" viewBox="0 0 40 41" fill="none" xmlns="http://www.w3.org/2000/svg">
<g clip-path="url(#clip0)">
<path d="M34.6876 4.7556C33.6954 3.84154 29.6798 0.927474 20.7266 0.888411C20.7266 0.888411 10.172 0.255599 5.03133 4.97435C2.17195 7.83372 1.16414 12.029 1.05477 17.2243C0.945391 22.4197 0.812579 32.154 10.1954 34.7947H10.2032L10.1954 38.8259C10.1954 38.8259 10.1329 40.4587 11.211 40.7868C12.5079 41.1931 13.2735 39.9509 14.5157 38.615C15.1954 37.8806 16.1329 36.8025 16.8438 35.9822C23.2657 36.5212 28.1954 35.2868 28.7579 35.1072C30.0548 34.6853 37.3907 33.7478 38.5782 24.0134C39.8126 13.9665 37.9845 7.62279 34.6876 4.7556V4.7556ZM35.7735 23.279C34.7657 31.404 28.8204 31.9197 27.7266 32.2712C27.2579 32.4197 22.922 33.4978 17.4766 33.1462C17.4766 33.1462 13.4141 38.0447 12.1485 39.3181C11.7345 39.7322 11.2813 39.6931 11.2891 38.8728C11.2891 38.3337 11.3204 32.1775 11.3204 32.1775C11.3126 32.1775 11.3126 32.1775 11.3204 32.1775C3.36727 29.9743 3.83602 21.6853 3.92195 17.3493C4.00789 13.0134 4.8282 9.45872 7.25008 7.0681C11.6016 3.12279 20.5626 3.70872 20.5626 3.70872C28.1329 3.73997 31.7579 6.02122 32.6016 6.78685C35.3907 9.17747 36.8126 14.8962 35.7735 23.279V23.279ZM24.9141 16.9665C24.9454 17.6384 23.9376 17.6853 23.9063 17.0134C23.8204 15.2947 23.0157 14.4587 21.3595 14.365C20.6876 14.3259 20.7501 13.3181 21.4141 13.3572C23.5938 13.4743 24.8048 14.7243 24.9141 16.9665ZM26.5001 17.8493C26.5782 14.5368 24.5079 11.9431 20.5782 11.654C19.9141 11.6072 19.9845 10.5993 20.6485 10.6462C25.1798 10.9743 27.5938 14.0915 27.5079 17.8728C27.5001 18.5447 26.4845 18.5134 26.5001 17.8493V17.8493ZM30.172 18.8962C30.1798 19.5681 29.1641 19.5759 29.1641 18.904C29.1173 12.5368 24.8751 9.0681 19.7266 9.02904C19.0626 9.02122 19.0626 8.02122 19.7266 8.02122C25.4845 8.06029 30.1173 12.0368 30.172 18.8962V18.8962ZM29.2891 26.5603V26.5759C28.4454 28.0603 26.8673 29.7009 25.2423 29.1775L25.2266 29.154C23.5782 28.6931 19.6954 26.6931 17.2423 24.74C15.9766 23.74 14.8204 22.5603 13.9298 21.4275C13.1251 20.4197 12.3126 19.2243 11.5235 17.7868C9.85945 14.779 9.49227 13.4353 9.49227 13.4353C8.96883 11.8103 10.6016 10.2322 12.0938 9.38841H12.1095C12.8282 9.01341 13.5157 9.13841 13.9766 9.6931C13.9766 9.6931 14.9454 10.8493 15.3595 11.4197C15.7501 11.9509 16.2735 12.8025 16.547 13.279C17.0235 14.1306 16.7266 14.9978 16.2579 15.3572L15.3204 16.1072C14.8438 16.49 14.9063 17.2009 14.9063 17.2009C14.9063 17.2009 16.297 22.4587 21.4923 23.7868C21.4923 23.7868 22.2032 23.8493 22.586 23.3728L23.336 22.4353C23.6954 21.9665 24.5626 21.6697 25.4141 22.1462C26.5626 22.7947 28.0235 23.8025 28.9923 24.7165C29.5391 25.1618 29.6641 25.8415 29.2891 26.5603Z" fill="#5899FE"/>
</g>
<defs>
<clipPath id="clip0">
<rect width="40" height="40" fill="white" transform="translate(0 0.857178)"/>
</clipPath>
</defs>
</svg>
