<svg width="99" height="70" viewBox="0 0 99 70" fill="none" xmlns="http://www.w3.org/2000/svg">
<g clip-path="url(#clip0)">
<path d="M36.4341 0C26.4732 0 17.9127 3.31573 10.7525 9.94719C4.42041 15.8046 0.876868 22.7711 0.14624 30.8351C3.96986 20.8995 19.2521 13.4709 37.5178 13.4709C38.8086 13.4709 40.0872 13.5055 41.3536 13.5864C41.3658 13.5864 41.378 13.5864 41.3902 13.5864H43.3628C47.3204 13.5864 50.6935 12.2694 53.482 9.6237C56.2706 6.97805 57.671 3.77785 57.671 0.0231061H36.4341V0Z" fill="white"/>
<path d="M37.603 15.1807C37.6151 15.1807 37.6151 15.1807 37.6273 15.1807C37.6151 15.1807 37.6151 15.1807 37.603 15.1807C37.5786 15.1807 37.5542 15.1807 37.5177 15.1807C19.252 15.1807 3.96974 22.6093 0.146125 32.5449C0.0487085 33.6078 0 34.6822 0 35.7682V69.9884C4.14022 69.9884 7.69594 68.5789 10.655 65.76C13.6262 62.941 15.1118 59.5675 15.1118 55.651V35.7682C15.1118 30.1303 17.1819 25.3127 21.3221 21.3038C25.4624 17.2949 31.6118 15.4464 37.603 15.1807Z" fill="white"/>
<path d="M41.0976 31.2163C39.1736 31.7709 37.4688 32.776 35.9589 34.2548C33.5721 36.6 32.3666 39.4074 32.3666 42.6654V54.0567C32.3666 55.4315 32.0622 56.6793 31.4655 57.7999C31.0515 58.5624 30.5035 59.2671 29.8216 59.9257C28.129 61.5316 26.0589 62.3403 23.6356 62.3403V42.6654C23.6356 42.573 23.6356 42.4921 23.6356 42.3997C25.998 39.0493 29.8581 35.8375 34.7533 33.5038C36.8721 32.5103 39.0031 31.7477 41.0976 31.2163Z" fill="white"/>
<path d="M98.9999 40.7012V60.3761C96.6132 60.3761 94.5553 59.5674 92.8383 57.9384C92.3025 57.43 91.852 56.8986 91.4867 56.3325C90.6708 55.0732 90.2689 53.6637 90.2689 52.0925V40.7012C90.2689 37.4432 89.0756 34.6474 86.7132 32.2906C85.3372 30.9273 83.7785 29.9569 82.0494 29.3908C80.7952 28.9748 79.4557 28.7669 78.0188 28.7669C77.9457 28.7669 77.8727 28.7669 77.7996 28.7669C74.4631 28.8131 71.6258 29.9915 69.2878 32.2906C67.0715 34.4741 65.8782 37.0504 65.7199 40.0196C65.7077 40.2506 65.6955 40.4701 65.6955 40.7012V60.3761C63.3088 60.3761 61.2509 59.5674 59.5339 57.9384C58.6206 57.0719 57.9509 56.113 57.5247 55.0617C57.1472 54.1374 56.9645 53.1554 56.9645 52.0925V40.7012C56.9645 37.4432 55.7712 34.6474 53.4088 32.2906C51.0465 29.9338 48.124 28.7669 44.69 28.7669C43.862 28.7669 43.0583 28.8362 42.2911 28.9748C42.2911 28.9748 42.2911 28.9748 42.2789 28.9748C41.8771 29.0442 41.4752 29.1366 41.0856 29.2521C39.0033 29.7836 36.8601 30.5461 34.7535 31.5512C29.907 33.8618 26.059 37.0389 23.6967 40.3662C23.6967 40.2391 23.6967 40.1236 23.6967 39.9965C23.6967 39.4766 23.721 38.9567 23.7697 38.4368C24.269 33.9427 26.3026 30.0377 29.8583 26.722C31.5387 25.1508 33.3531 23.9031 35.3014 22.9673C35.3258 22.9557 35.3502 22.9441 35.3745 22.9326C38.1874 21.6618 41.3535 20.957 44.7144 20.957C46.5653 20.957 48.3675 21.1765 50.0723 21.5809C51.3996 21.9159 52.6904 22.378 53.9568 22.9673C56.8671 24.3305 59.3391 26.2368 61.3848 28.6629C61.4214 28.6167 61.4579 28.582 61.4944 28.5358C63.4549 26.2021 65.8782 24.3536 68.7642 22.9904C71.711 21.6155 74.7918 20.9224 78.0188 20.9224C83.7664 20.9224 88.7103 22.8517 92.8261 26.7104C96.5158 30.1648 98.5494 34.2546 98.9391 38.9798C98.9756 39.5574 98.9999 40.1235 98.9999 40.7012Z" fill="white"/>
</g>
<defs>
<clipPath id="clip0">
<rect width="99" height="70" fill="white"/>
</clipPath>
</defs>
</svg>
